<?xml version="1.0" standalone="no"?>
<svg xmlns:xlink="http://www.w3.org/1999/xlink" id="wave" style="transform:rotate(180deg); transition: 0.3s" viewBox="0 0 1440 100" version="1.1" xmlns="http://www.w3.org/2000/svg"><defs><linearGradient id="sw-gradient-0" x1="0" x2="0" y1="1" y2="0"><stop stop-color="rgba(216, 191, 216, 1)" offset="0%"/><stop stop-color="rgba(216, 191, 216, 1)" offset="100%"/></linearGradient></defs><path style="transform:translate(0, 0px); opacity:1" fill="url(#sw-gradient-0)" d="M0,90L60,76.7C120,63,240,37,360,30C480,23,600,37,720,50C840,63,960,77,1080,78.3C1200,80,1320,70,1440,61.7C1560,53,1680,47,1800,48.3C1920,50,2040,60,2160,60C2280,60,2400,50,2520,41.7C2640,33,2760,27,2880,30C3000,33,3120,47,3240,50C3360,53,3480,47,3600,45C3720,43,3840,47,3960,48.3C4080,50,4200,50,4320,48.3C4440,47,4560,43,4680,50C4800,57,4920,73,5040,78.3C5160,83,5280,77,5400,76.7C5520,77,5640,83,5760,73.3C5880,63,6000,37,6120,21.7C6240,7,6360,3,6480,16.7C6600,30,6720,60,6840,70C6960,80,7080,70,7200,61.7C7320,53,7440,47,7560,36.7C7680,27,7800,13,7920,11.7C8040,10,8160,20,8280,28.3C8400,37,8520,43,8580,46.7L8640,50L8640,100L8580,100C8520,100,8400,100,8280,100C8160,100,8040,100,7920,100C7800,100,7680,100,7560,100C7440,100,7320,100,7200,100C7080,100,6960,100,6840,100C6720,100,6600,100,6480,100C6360,100,6240,100,6120,100C6000,100,5880,100,5760,100C5640,100,5520,100,5400,100C5280,100,5160,100,5040,100C4920,100,4800,100,4680,100C4560,100,4440,100,4320,100C4200,100,4080,100,3960,100C3840,100,3720,100,3600,100C3480,100,3360,100,3240,100C3120,100,3000,100,2880,100C2760,100,2640,100,2520,100C2400,100,2280,100,2160,100C2040,100,1920,100,1800,100C1680,100,1560,100,1440,100C1320,100,1200,100,1080,100C960,100,840,100,720,100C600,100,480,100,360,100C240,100,120,100,60,100L0,100Z"/></svg>